PathFileType	3	(X/Y/Z)	F:\ViconData\AntennenMessung\Messung1\Session1\ID11.trc
DataRate	CameraRate	NumFrames	NumMarkers	Units	OrigDataRate	OrigDataStartFrame	OrigNumFrames
120.0	120.0	6	70	mm	120.0	644	1286	
Frame#	Time	Ashort			Along			Atop			A4			Bshort			Blong			Btop			B4			Cshort			Clong			Ctop			C4			Dshort			Dlong			Dtop			D4			Eshort			Elong			Etop			E4			Fshort			Flong			Ftop			F4			Gshort			Glong			Gtop			G4			Hshort			Hlong			Htop			H4			I1			I2			I3			I4			I5			WandAshort			WandAlong			WandAtop			WandA4			WandA15			WandBshort			WandB4			WandB5			WandBtop			WandBlong			WandCshort			WandClong			WandCtop			WandC4			WandC5			Acenter			Aantenna			Bcenter			Bantenna			Ccenter			Cantenna			Dcenter			Dantenna			Ecenter			Eantenna			Fcenter			Fantenna			Gcenter			Gantenna			Hcenter			Hantenna			Icenter			Iantenna			
		X1	Y1	Z1	X2	Y2	Z2	X3	Y3	Z3	X4	Y4	Z4	X5	Y5	Z5	X6	Y6	Z6	X7	Y7	Z7	X8	Y8	Z8	X9	Y9	Z9	X10	Y10	Z10	X11	Y11	Z11	X12	Y12	Z12	X13	Y13	Z13	X14	Y14	Z14	X15	Y15	Z15	X16	Y16	Z16	X17	Y17	Z17	X18	Y18	Z18	X19	Y19	Z19	X20	Y20	Z20	X21	Y21	Z21	X22	Y22	Z22	X23	Y23	Z23	X24	Y24	Z24	X25	Y25	Z25	X26	Y26	Z26	X27	Y27	Z27	X28	Y28	Z28	X29	Y29	Z29	X30	Y30	Z30	X31	Y31	Z31	X32	Y32	Z32	X33	Y33	Z33	X34	Y34	Z34	X35	Y35	Z35	X36	Y36	Z36	X37	Y37	Z37	X38	Y38	Z38	X39	Y39	Z39	X40	Y40	Z40	X41	Y41	Z41	X42	Y42	Z42	X43	Y43	Z43	X44	Y44	Z44	X45	Y45	Z45	X46	Y46	Z46	X47	Y47	Z47	X48	Y48	Z48	X49	Y49	Z49	X50	Y50	Z50	X51	Y51	Z51	X52	Y52	Z52	X53	Y53	Z53	X54	Y54	Z54	X55	Y55	Z55	X56	Y56	Z56	X57	Y57	Z57	X58	Y58	Z58	X59	Y59	Z59	X60	Y60	Z60	X61	Y61	Z61	X62	Y62	Z62	X63	Y63	Z63	X64	Y64	Z64	X65	Y65	Z65	X66	Y66	Z66	X67	Y67	Z67	X68	Y68	Z68	X69	Y69	Z69	X70	Y70	Z70	
644	5.3583333	-1038.235	214.4328	-1644.2032	-1109.2971	203.88583	-1599.3857	-1063.8239	172.62959	-1625.4146	-1054.1863	262.19339	-1634.9779	-1352.9634	234.82553	1003.8596	-1281.2924	227.0553	1052.3871	-1322.8582	194.05228	1020.8808	-1284.7325	287.83926	1052.8374	814.01099	187.6069	1209.5618	892.88574	179.09331	1178.7921	844.38464	145.49062	1198.3911	860.52881	292.68289	1167.3029	1115.7607	209.75699	-1401.7297	1056.0825	194.02065	-1460.2303	1095.0991	162.61258	-1423.9836	1069.8645	238.66879	-1425.8468	-1204.5299	1685.9596	-1563.2507	-1129.1473	1688.2742	-1606.1046	-1173.1426	1724.4366	-1581.9775	-1133.6335	1581.0087	-1603.6597	-1239.7133	1699.274	1119.4889	-1309.3047	1698.734	1071.884	-1270.4456	1736.3574	1096.8861	-1244.6545	1593.866	1106.5356	988.90601	1664.2717	1162.2798	957.44794	1700.3489	1183.7761	922.63953	1662.1088	1215.0332	939.77539	1659.4227	1159.9182	999.04767	1668.5586	-1579.4971	1058.8887	1670.1547	-1518.655	1025.0049	1708.0189	-1551.1368	1059.2566	1672.1287	-1585.4585	-26.487982	1172.9556	-954.25311	-111.45892	1171.7244	-963.00562	-64.752541	1209.6027	-959.2923	-60.631344	1170.6104	-989.70789	-68.929718	1175.3636	-910.42902																																														-1068.9739	209.87054	-1624.8167	-1074.3159	248.49799	-1624.1965	-1321.6407	231.42969	1025.0676	-1320.379	270.16699	1029.4067	847.75928	183.96414	1196.3962	851.16241	222.76329	1194.3846	1088.7184	202.62631	-1428.2382	1082.6107	240.92918	-1432.3107	-1171.8932	1686.9615	-1581.8041	-1170.594	1647.9836	-1581.6238	-1270.9845	1699.0314	1098.0973	-1271.5474	1660.0559	1099.3622	953.0224	1705.424	1186.8002	972.78113	1733.5929	1168.4396	1026.4971	1669.2906	-1551.5884	1027.9987	1630.3223	-1552.043	-64.331131	1172.4071	-958.15118	-63.889503	1133.428	-956.95538
645	5.3666667	-1038.1941	214.4418	-1644.2084	-1109.3066	203.96806	-1599.3837	-1063.8333	172.60655	-1625.4263	-1054.174	262.18823	-1634.9563	-1352.8881	235.05092	1003.8499	-1281.3328	227.12321	1052.4114	-1322.8179	194.04898	1020.8661	-1284.6021	287.89529	1052.7802	814.06946	187.55586	1209.5929	892.94336	179.11191	1178.7352	844.52008	145.22221	1198.4054	860.62848	292.6134	1167.447	1115.7412	209.75908	-1401.7097	1056.2018	194.10451	-1460.2917	1095.0808	162.45885	-1423.9833	1069.8674	238.67096	-1425.848	-1204.5236	1685.9399	-1563.2537	-1129.1324	1688.2932	-1606.2679	-1173.1484	1724.4342	-1581.9669	-1133.6138	1580.9862	-1603.6193	-1239.7279	1699.2881	1119.4927	-1309.3507	1698.7577	1071.8876	-1270.4341	1736.335	1096.8712	-1244.7773	1593.6002	1106.6699	988.84827	1664.2031	1162.2958	957.49799	1700.3442	1183.7983	922.67169	1662.0988	1214.9838	939.83148	1659.4102	1159.9353	999.08185	1668.5288	-1579.4493	1058.864	1670.1469	-1518.6459	1024.9965	1708.0094	-1551.1288	1059.2633	1672.1305	-1585.4591	-26.478197	1172.9747	-954.25092	-111.42694	1171.6934	-962.97559	-64.77626	1209.5995	-959.29297	-60.632992	1170.6178	-989.70178	-69.142609	1175.2551	-910.55078																																														-1068.9475	209.91229	-1624.8234	-1074.2441	248.54591	-1624.199	-1321.5466	231.57855	1025.1198	-1320.2349	270.30853	1029.5095	847.86847	183.93745	1196.3698	851.2243	222.73923	1194.3297	1088.7375	202.65909	-1428.2789	1082.6926	240.96965	-1432.3727	-1171.9163	1686.9576	-1581.8575	-1170.6348	1647.9789	-1581.7439	-1270.998	1699.0498	1098.1115	-1271.5874	1660.0758	1099.4078	953.16644	1705.3376	1186.7692	973.00012	1733.4602	1168.4186	1026.4932	1669.2706	-1551.5695	1027.9989	1630.3022	-1552.0129	-64.333717	1172.4036	-958.13879	-63.869968	1133.4252	-956.92944
646	5.375	-1038.1968	214.455	-1644.2236	-1109.3276	203.82475	-1599.3292	-1063.8281	172.64818	-1625.4365	-1054.116	262.19272	-1634.9679	-1352.995	234.81757	1003.8141	-1281.3153	227.17256	1052.4026	-1322.8518	194.09048	1020.8123	-1284.7545	287.83856	1052.8591	814.02344	187.60884	1209.5687	892.57843	178.5576	1179.2323	844.5882	145.26044	1198.4375	860.54095	292.70441	1167.3143	1115.7509	209.76225	-1401.7329	1056.1676	194.04237	-1460.2933	1095.033	162.22644	-1423.8929	1069.8804	238.65666	-1425.854	-1204.5168	1685.9534	-1563.2588	-1129.1433	1688.2441	-1606.0677	-1173.2052	1724.3497	-1581.8622	-1133.5872	1581.0074	-1603.6174	-1239.7056	1699.267	1119.4789	-1309.369	1698.7903	1071.8979	-1270.4374	1736.3219	1096.8739	-1244.6263	1593.95	1106.5781	988.87811	1664.2229	1162.2769	957.14862	1700.5793	1183.7373	922.73413	1662.1667	1215.0319	939.82825	1659.386	1159.9609	999.07593	1668.5229	-1579.4542	1058.8651	1670.1343	-1518.6409	1025.0062	1708.011	-1551.1271	1059.2539	1672.1301	-1585.4536	-26.501408	1172.8754	-954.06995	-111.40625	1171.6588	-962.97363	-64.777901	1209.6096	-959.30194	-60.625046	1170.6194	-989.70654	-69.00528	1175.3566	-910.47528																																														-1068.9823	209.85422	-1624.7932	-1074.3333	248.47961	-1624.1254	-1321.7145	231.48132	1025.0177	-1320.5364	270.21927	1029.3748	848.21344	183.66939	1196.3651	851.87299	222.44093	1194.2733	1088.7122	202.62862	-1428.3074	1082.719	240.93738	-1432.493	-1171.9935	1686.9418	-1581.7306	-1170.731	1647.9623	-1581.5934	-1271.0155	1699.0527	1098.0938	-1271.6202	1660.0781	1099.3695	952.97339	1705.3633	1186.5612	972.65363	1733.4764	1168.0319	1026.4957	1669.2618	-1551.5646	1027.9937	1630.2931	-1552.0048	-64.375877	1172.3326	-958.04175	-63.955532	1133.3572	-956.72412
647	5.3833333	-1038.2162	214.47183	-1644.2286	-1109.3108	203.86165	-1599.3788	-1063.8281	172.62886	-1625.4396	-1054.204	262.18713	-1634.9642	-1352.9812	235.19958	1003.7665	-1281.3666	227.09018	1052.408	-1322.8062	194.1041	1020.848	-1284.6074	287.92999	1052.7185	814.04962	187.55635	1209.5619	892.5993	178.55836	1179.1637	844.56299	145.28154	1198.3627	860.60004	292.65897	1167.4635	1115.7103	209.48529	-1401.5811	1056.1957	194.0896	-1460.3097	1095.0956	162.57478	-1423.988	1069.8745	238.6304	-1425.8448	-1204.5415	1685.9578	-1563.24	-1129.1306	1688.2754	-1606.0598	-1173.1576	1724.4021	-1581.927	-1133.5498	1580.9974	-1603.6047	-1239.6936	1699.2439	1119.4655	-1309.3768	1698.8016	1071.9036	-1270.4347	1736.3251	1096.8746	-1244.6642	1593.8121	1106.6996	988.9234	1664.2701	1162.2949	957.14862	1700.6198	1183.7736	922.60065	1662.1949	1215.0585	939.8114	1659.4126	1159.9441	999.03528	1668.548	-1579.4916	1058.8812	1670.14	-1518.6484	1024.999	1708.0146	-1551.1405	1059.2556	1672.1295	-1585.4611	-26.508583	1172.9556	-954.24927	-111.39671	1171.6765	-962.98114	-64.780853	1209.6104	-959.29785	-60.626396	1170.6235	-989.70593	-68.990334	1175.3571	-910.47253																																														-1068.9923	209.87877	-1624.8135	-1074.3473	248.50394	-1624.1644	-1321.4847	231.63301	1025.1593	-1320.1215	270.35452	1029.6077	848.18024	183.64662	1196.3535	851.83618	222.42175	1194.323	1088.8267	202.53084	-1428.1095	1082.8129	240.86098	-1432.0635	-1171.9153	1686.9604	-1581.7657	-1170.6222	1647.9823	-1581.5979	-1271.0223	1699.0449	1098.0822	-1271.6367	1660.0702	1099.3447	952.90399	1705.4753	1186.6427	972.60413	1733.6116	1168.1697	1026.4829	1669.2781	-1551.5865	1027.9758	1630.3092	-1552.0352	-64.339058	1172.3855	-958.14062	-63.876442	1133.4071	-956.92889
648	5.3916667	-1038.1926	214.2856	-1644.2493	-1109.311	203.90234	-1599.3727	-1063.7645	172.65266	-1625.4736	-1054.1698	262.20392	-1634.9607	-1352.9257	235.00661	1003.7668	-1281.3379	227.09685	1052.416	-1322.8846	194.06134	1020.8441	-1284.6737	287.91757	1052.8245	814.04095	187.56331	1209.5559	892.88245	179.07039	1178.8336	844.57251	145.31563	1198.3159	860.63965	293.19275	1166.9128	1115.746	209.77643	-1401.7228	1056.182	194.04175	-1460.252	1095.1062	162.46628	-1423.9436	1069.8901	238.67529	-1425.9136	-1204.5906	1686.0203	-1563.1125	-1129.1459	1688.2603	-1606.0398	-1173.1575	1724.4087	-1581.9371	-1133.5243	1581.0068	-1603.5807	-1239.6965	1699.2515	1119.4756	-1309.3687	1698.8253	1071.9073	-1270.4604	1736.3392	1096.8715	-1244.6691	1593.8707	1106.4474	988.90955	1664.2736	1162.2838	957.21814	1700.559	1183.8236	922.8371	1662.0583	1214.998	939.77057	1659.3542	1159.9474	999.06305	1668.5166	-1579.437	1058.8793	1670.1593	-1518.6501	1024.9949	1708.0084	-1551.1326	1059.2562	1672.1262	-1585.4619	-26.658419	1172.8461	-954.20203	-111.64616	1172.0116	-963.02429	-64.772179	1209.6112	-959.30359	-60.633739	1170.6272	-989.72705	-69.006447	1175.361	-910.47845																																														-1068.8359	209.81168	-1624.9128	-1074.1093	248.44913	-1624.33	-1321.603	231.54576	1025.0526	-1320.2788	270.27988	1029.4016	847.95947	183.90955	1196.3386	851.3645	222.70975	1194.3511	1088.7371	202.64162	-1428.2625	1082.6646	240.9453	-1432.38	-1171.9142	1686.9902	-1581.7048	-1170.6193	1648.0126	-1581.4629	-1271.05	1699.0596	1098.0691	-1271.6666	1660.0846	1099.321	953.07513	1705.3024	1186.6393	972.76105	1733.4557	1168.177	1026.4939	1669.2699	-1551.5609	1028.0021	1630.3015	-1551.9918	-64.52903	1172.4742	-958.13324	-64.273819	1133.4944	-956.90485
649	5.4	-1038.198	214.47815	-1644.2444	-1109.3107	203.82475	-1599.3405	-1063.7756	172.64536	-1625.4525	-1054.2067	262.19406	-1634.9651	-1352.9485	234.84694	1003.762	-1281.3643	227.25684	1052.3031	-1322.7531	194.17436	1020.8117	-1284.5721	287.89957	1052.6554	814.06567	187.54007	1209.6473	892.72021	179.27788	1178.8046	844.59259	145.20602	1198.4343	860.62268	292.69516	1167.3649	1115.7125	209.50635	-1401.5721	1056.1786	194.10208	-1460.3113	1095.0627	162.37819	-1423.9529	1069.8696	238.63564	-1425.8461	-1204.5287	1685.9508	-1563.2566	-1129.1322	1688.2944	-1606.0919	-1173.1635	1724.4089	-1581.9286	-1133.5206	1580.9811	-1603.5581	-1239.7166	1699.2667	1119.4873	-1309.3525	1698.7872	1071.8971	-1270.4856	1736.4056	1096.9064	-1244.6736	1593.8668	1106.5055	988.87189	1664.2119	1162.2904	957.42596	1700.3906	1183.799	922.71722	1662.1501	1214.9725	939.82001	1659.4044	1159.924	999.06201	1668.5378	-1579.4799	1058.8785	1670.1584	-1518.6501	1025.0044	1708.0076	-1551.1375	1059.2538	1672.131	-1585.4637	-26.527517	1172.9418	-954.25708	-111.42439	1171.7009	-962.97253	-64.774689	1209.6132	-959.29633	-60.636185	1170.6287	-989.71625	-68.992844	1175.3481	-910.47308																																														-1068.9548	209.87044	-1624.823	-1074.3285	248.49294	-1624.1698	-1321.6313	231.52637	1024.9979	-1320.4679	270.26645	1029.3398	847.86609	183.98953	1196.3931	851.14166	222.798	1194.3505	1088.7935	202.54112	-1428.1316	1082.8104	240.87251	-1432.1199	-1171.9174	1686.9644	-1581.7842	-1170.6204	1647.9863	-1581.6338	-1271.0337	1699.0509	1098.0847	-1271.6055	1660.0746	1099.3141	953.11456	1705.3506	1186.7477	972.90887	1733.4823	1168.3682	1026.5004	1669.2811	-1551.5767	1028.0057	1630.3126	-1552.0188	-64.34935	1172.389	-958.13977	-63.903973	1133.4103	-956.92871
